<svg width="588" height="860" viewBox="0 0 588 860" fill="none" xmlns="http://www.w3.org/2000/svg">
<g clip-path="url(#clip0_109_130)">
<path d="M573.66 563.037C566.895 549.111 554.579 538.046 539.745 533.749C533.967 527.466 530.733 519.33 535.854 511.208C539.052 506.141 545.699 503.176 551.198 506.48C558.214 510.695 556.133 522.994 546.866 520.91C542.472 519.922 540.596 526.67 545.001 527.66C554.499 529.796 564.064 521.837 562.701 511.871C561.376 502.188 550.683 496.129 541.539 498.652C531.48 501.425 525.702 511.854 526.72 521.855C527.094 525.527 528.18 528.882 529.777 531.938C509.456 530.447 488.415 542.259 480.931 561.483C473.933 579.455 479.82 601.772 495.409 613.28C498.657 621.273 500.417 629.828 498.502 638.388C496.11 649.082 487.851 658.831 476.09 658.102C465.189 657.426 457.707 647.247 463.112 637.054C468.321 627.232 483.612 627.15 487.029 638.569C488.316 642.875 495.083 641.04 493.787 636.708C489.716 623.1 471.923 618.039 461.433 627.822C451.938 636.675 452.013 652.1 461.97 660.047C453.177 662.233 445.181 666.783 440.758 675.283C438.902 678.846 438.095 682.916 438.311 686.891C432.016 700.613 421.739 720.266 403.724 717.097C396.02 715.744 389.482 709.067 391.912 700.862C392.973 697.28 395.723 694.317 399.666 694.263C403.666 694.209 407.812 697.116 408.084 701.253C408.378 705.725 415.389 705.758 415.093 701.253C414.428 691.177 403.308 684.357 393.903 688.457C383.898 692.819 381.916 706.666 387.762 715.052C394.449 724.645 407.836 726.426 418.044 722.018C429.212 717.192 435.999 707.273 441.309 696.788C443.107 699.703 445.697 702.137 449.093 703.678C458.286 707.85 471.28 701.59 471.541 690.827C471.786 680.698 459.432 673.619 450.958 679.168C447.202 681.629 450.709 687.694 454.496 685.213C461.12 680.877 467.879 690.485 461.748 695.781C455.585 701.108 447.724 696.356 445.701 689.545C445.516 688.924 445.376 688.321 445.261 687.725C445.266 687.338 445.194 686.971 445.084 686.622C443.148 671.382 464.056 665.518 475.887 665.33C476.273 665.324 476.612 665.252 476.931 665.155C486.787 665.159 496.305 659.317 501.401 650.284C507.181 640.032 507.188 628.842 504.293 618.13C522.373 624.984 544.999 617.592 554.57 600.478C558.605 593.259 547.51 586.781 543.473 594C536.706 606.1 520.534 611.147 507.792 605.723C493.936 599.825 488.152 582.354 492.065 568.549C494.368 560.42 500.032 554.047 507.127 549.93C501.133 557.381 498.733 568.305 504.252 576.68C509.12 584.066 519.817 588.023 527.959 583.772C535.225 579.978 538.254 568.931 530.453 564.046C526.621 561.645 523.099 567.701 526.915 570.09C529.829 571.916 527.029 576.226 525.052 577.413C522.613 578.878 519.446 578.729 516.834 577.875C510.149 575.692 507.08 569.07 508.546 562.417C511.309 549.895 523.696 545.786 535.188 545.717C547.792 548.923 558.292 558.991 563.228 570.993C566.831 579.752 567.217 589.089 565.179 597.951C563.09 603.301 560.646 608.553 557.812 613.676C523.956 654.687 484.43 690.937 440.318 720.704C418.497 735.43 394.893 747.978 372.039 761.545C372.08 761.232 372.11 760.911 372.11 760.57V675.973C389.15 679.202 407.674 676.779 421.753 666.158C436.342 655.154 443.705 635.022 434.076 618.267C424.401 601.431 399.519 599.6 388.304 615.712C383.572 622.509 394.706 628.933 399.399 622.19C403.497 616.302 412.82 615.822 418.458 619.687C425.644 624.613 427.008 635.035 424.278 642.764C421.072 651.847 413.621 657.769 404.857 661.109L318.958 575.31C325.181 578.286 331.847 580.348 338.776 581.336C346.967 582.503 355.927 582.207 363.787 579.39C364.27 579.451 364.801 579.399 365.386 579.174C373.891 575.893 384.873 571.384 393.316 577.233C397.95 580.443 399.739 585.758 396.64 590.848C395.444 592.815 393.635 594.57 391.604 595.647C389.873 596.65 388.004 597.006 386.002 596.715C383.511 595.686 382.929 594.117 384.256 592.009C387.444 588.814 382.49 583.861 379.3 587.059C373.951 592.418 376.934 601.543 384.138 603.465C392.806 605.778 402.066 598.36 404.516 590.371C407.102 581.93 402.349 573.794 394.745 570.003C389.666 567.47 384.36 567.113 379.086 567.864C385.813 557.78 384.818 543.1 373.565 536.468C362.79 530.116 348.485 537.992 348.396 550.501C348.364 555.009 355.373 555.012 355.405 550.501C355.446 544.829 360.925 540.292 366.61 541.206C371.581 542.006 375.223 546.811 376.22 551.486C378.474 562.067 368.864 570.676 359.677 573.449C340.025 579.382 317.52 569.954 303.775 555.919V521.144C303.978 520.727 304.181 520.309 304.409 519.897C308.562 512.375 316.53 506.5 325.447 507.65C333.122 508.638 340.222 514.612 339.125 522.901C338.652 526.489 336.775 530.183 333.608 532.139C332.032 533.11 330.107 533.687 328.235 533.533C324.413 533.22 321.132 529.398 324.73 526.379C328.19 523.478 323.21 518.548 319.774 521.429C315.366 525.125 314.95 531.893 318.712 536.263C322.671 540.863 329.751 541.526 335.076 539.211C346.592 534.203 349.614 518.394 341.828 508.966C333.139 498.448 317.412 498.258 307.036 506.249C305.858 507.157 304.778 508.123 303.775 509.135V507.721C305.404 502.7 307.302 497.759 309.525 492.922C315.638 479.616 324.164 466.95 334.935 456.92C342.337 453.149 351.749 452.479 357.717 459.196C362.731 464.838 364.009 473.739 359.237 479.903C356.271 483.735 351.049 486.254 346.382 483.779C341.852 481.377 340.82 474.363 346.497 472.491C350.76 471.084 348.934 464.321 344.634 465.739C332.233 469.829 333.222 486.623 345.087 490.816C358.215 495.453 369.761 482.465 369.217 469.991C368.753 459.344 361.386 450.213 351.412 447.719C359.441 445.02 368.548 445.86 375.542 451.186C383.997 457.621 387.285 469.053 384.608 479.112C382.48 487.103 394.872 490.512 397 482.523C401.02 467.419 395.876 450.704 383.339 441.105C380.895 439.231 378.247 437.707 375.475 436.521C398.535 432.963 424.479 440.396 436.314 461.747C442.842 473.523 444.612 489.372 440.051 502.425C434.919 509.009 426.831 513.808 418.31 512.329C409.509 510.801 402.2 502.33 405.801 493.322C409.654 483.682 424.912 484.431 424.809 495.837C424.768 500.342 431.777 500.346 431.818 495.837C431.928 483.482 417.52 475.185 406.837 481.563C395.576 488.285 395.353 504.656 404.538 513.084C411.638 519.6 420.964 520.742 429.422 518.129C427.721 519.542 425.849 520.809 423.792 521.898C404.532 532.083 375.475 521.425 371.745 498.982C370.396 490.853 358.01 494.301 359.355 502.395C363.648 528.238 392.444 541.688 416.505 537.659C418.564 537.314 420.537 536.834 422.435 536.244C418.12 550.44 417.617 565.683 424.168 579.432C432.254 596.405 450.086 607.098 468.822 604.584C476.981 603.487 473.506 591.119 465.407 592.206C451.959 594.011 439.267 583.32 434.611 571.397C428.634 556.086 433.497 538.781 441.061 524.996C441.235 524.68 441.371 524.366 441.488 524.053C447.044 517.941 450.962 510.319 453.177 502.101C458.171 508.166 464.574 513.064 471.9 516.187C478.162 524.593 481.024 534.504 473.551 543.809C468.204 550.47 457.269 552.173 452.421 543.815C448.126 536.412 456.822 527.529 464.092 532.56C467.807 535.133 471.315 529.066 467.628 526.515C458.748 520.368 445.546 526.889 444.186 537.406C442.69 548.959 454.744 558.087 465.556 556.369C478.527 554.311 485.863 540.727 484.348 528.48C483.934 525.136 483.029 522.036 481.777 519.127C496.866 521.792 512.751 516.648 524.003 506.253C530.086 500.631 520.983 491.571 514.916 497.177C494.027 516.481 461.032 504.861 455.365 477.556C455.18 476.672 454.864 475.933 454.455 475.316C449.091 443.636 420.747 424.006 389.691 422.847C385.828 422.703 382.029 422.852 378.296 423.239C384.081 402.488 404.05 384.021 426.639 385.419C436.491 386.027 448.341 393.601 446.582 404.862C445.156 413.987 433.173 418.896 428.571 409.256C425.012 401.805 413.93 408.309 417.474 415.734C424.112 429.638 443.906 430.938 453.516 419.597C464.66 406.446 459.097 387.592 445.671 378.592C431.407 369.032 412.251 371.792 397.721 379.679C398.019 378.939 398.3 378.187 398.544 377.413C401.246 368.846 400.072 358.462 393.091 352.218C387.11 346.87 376.978 346.198 372.089 353.4C367.322 360.424 372.445 370.224 381.115 369.574C385.584 369.239 385.62 362.236 381.115 362.573C375.752 362.975 376.716 356.564 380.815 355.226C383.93 354.212 387.311 356.106 389.35 358.343C392.944 362.285 393.493 368.145 392.435 373.16C390.808 380.868 385.476 386.864 379.721 392.139C379.035 388.679 377.966 385.236 376.391 381.851C368.527 364.948 349.134 354.532 330.8 360.491C314.105 365.919 303.917 385.085 310.842 401.726C313.037 407.002 316.929 411.236 321.647 414.121C326.634 418.981 330.886 425.776 327.864 432.796C326.372 436.259 323.156 439.129 319.163 438.678C313.764 438.072 310.445 429.048 317.82 428.361C322.273 427.946 322.315 420.941 317.82 421.36C310.883 422.006 305.091 428.046 306.583 435.367C308.008 442.35 315.418 446.779 322.273 445.564C329.613 444.261 334.838 437.748 335.654 430.525C336.155 426.09 335.212 421.952 333.364 418.202C339.559 418.959 345.976 417.696 351.356 413.942C358.088 409.245 351.671 398.112 344.871 402.858C336.954 408.383 325.002 404.918 322.133 395.351C318.675 383.822 328.03 372.79 339.369 371.777C351.912 370.657 362.474 379.344 366.228 390.92C370.392 403.76 366.245 417.467 358.194 427.89C338.232 435.196 321.175 449.768 308.934 467.756C307.092 470.464 305.383 473.229 303.775 476.034L303.775 369.261C305.752 361.953 306.686 354.29 310.017 347.48C312.26 342.895 315.819 338.67 320.993 337.401C326.785 335.981 336.01 341.899 329.617 347.908C332.909 344.814 327.946 339.869 324.661 342.958C318.479 348.768 326.431 357.935 333.597 353.927C341.985 349.235 339.14 337.532 332.494 332.821C324.154 326.911 313.138 331.286 307.325 338.639C305.901 340.44 304.748 342.355 303.775 344.35V321.093C307.897 311.908 312.983 303.077 319.614 295.643C321.488 293.919 323.286 292.11 325.01 290.231C327.009 288.45 329.125 286.78 331.383 285.26C342.324 277.889 356.061 274.303 368.423 277.768C370.564 278.756 372.555 280.088 374.316 281.86C376.818 284.382 378.61 287.838 378.704 291.435C378.758 293.581 378.307 295.899 377.234 297.779C376.563 298.955 372.84 303.427 371.674 300.609C369.975 296.504 363.191 298.304 364.914 302.47C367.378 308.422 373.526 309.98 378.858 306.284C384.055 302.681 386.216 295.804 385.579 289.739C385.554 289.514 385.517 289.3 385.487 289.079C393.346 299.575 393.188 314.876 381.793 323.643C368.697 333.72 348.871 319.301 355.317 303.883C358.502 296.27 346.072 292.948 342.927 300.47C336.054 316.906 349.257 336.117 365.878 339.536C376.751 341.771 386.913 337.264 393.983 329.598C397.33 340.662 403.357 350.791 412.572 358.257C426.635 369.649 445.443 373.223 462.135 365.484C464.203 364.525 466.137 363.379 467.954 362.1C471.22 362.136 474.475 362.735 477.613 364.084C485.27 367.38 491.132 374.973 489.492 383.632C488.078 391.1 480.854 396.542 473.223 393.793C466.059 391.212 464.638 379.936 472.301 376.851C476.431 375.187 474.628 368.413 470.438 370.099C460.846 373.96 456.809 386.386 463.244 394.913C470.315 404.28 485.361 403.025 492.261 394.227C500.196 384.105 496.904 369.55 487.349 361.827C483.515 358.726 479.254 356.85 474.816 355.922C480.446 349.423 483.785 341.125 484.1 332.427C499.044 357.973 513.761 383.649 528.165 409.496C528.165 409.498 528.165 409.5 528.167 409.5C530.595 421.862 529.402 435.211 522.358 445.945C515.682 456.114 502.828 462.856 490.558 460.841C479.928 459.095 471.956 449.948 471.114 439.266C470.702 434.028 472.23 428.707 476.154 425.056C480.424 421.083 490.597 419.536 490.615 427.879C490.632 436.136 503.482 436.151 503.466 427.879C503.428 410.57 483.291 404.069 470.391 413.238C458.713 421.542 455.626 437.014 460.5 450.017C463.753 458.701 469.338 464.864 476.09 468.698C471.535 472.814 469.146 478.998 471.276 486.163C474.98 498.636 492.76 501.133 498.985 489.29C501.079 485.305 495.031 481.762 492.931 485.758C489.231 492.8 479.146 490.65 477.728 483.083C476.731 477.774 479.472 473.858 483.485 471.843C495.143 475.358 508.682 473.285 519.591 466.316C519.627 471.009 520.718 475.649 523.411 480.052C529.309 489.703 544.188 494.391 552.573 485.076C559.63 477.236 557.747 463.039 547.609 458.822C542.616 456.745 536.114 457.662 533.298 462.73C530.781 467.257 532.229 472.396 536.32 475.248C540.026 477.833 543.534 471.767 539.858 469.204C538.504 467.295 538.85 466.117 540.898 465.67C542.308 464.347 543.877 464.311 545.604 465.56C546.901 466.247 547.922 467.369 548.639 468.622C549.981 470.965 550.117 474.028 549.385 476.59C547.445 483.383 540.047 484.57 534.431 481.338C526.366 476.693 525.484 468.46 527.264 460.124C528.34 459.036 529.38 457.898 530.349 456.685C535.914 449.71 539.307 441.617 540.93 433.129C554.456 459.227 566.147 486.347 571.579 515.349C574.569 531.32 575.374 547.379 573.66 563.037V563.037ZM497.707 716.139C496.999 720.358 496.708 724.47 496.727 728.516C495.916 728.959 495.162 729.59 494.517 730.452C491.912 733.93 489.11 737.196 486.153 740.291C482.975 730.623 477.45 722.154 470.041 715.232C482.848 705.624 495.258 695.487 507.207 684.844C508.252 683.914 509.275 682.959 510.313 682.021C504.384 692.571 499.788 703.767 497.707 716.139V716.139ZM512.75 793.483C513.387 797.289 513.691 801.11 513.495 804.875C512.353 802.182 510.95 799.589 509.29 797.101C510.49 795.953 511.65 794.758 512.75 793.483ZM479.608 836.403C478.423 828.887 475.813 821.804 471.896 815.369C483.599 812.536 494.744 808.414 503.913 801.631C507.171 806.797 509.269 812.443 510.048 818.549C504.345 830.017 491.819 834.341 479.608 836.403V836.403ZM469.949 837.678C457.11 839.022 444.238 840.112 431.358 841.08C430.281 834.788 428.258 828.785 425.355 823.155C425.741 823.088 426.124 823.017 426.51 822.95C438.282 820.946 451.612 819.556 464.63 816.965C468.733 823.181 471.403 829.974 472.692 837.375C471.766 837.483 470.849 837.583 469.949 837.678ZM407.383 842.757C398.841 843.308 390.294 843.78 381.746 844.212C380.751 840.172 379.458 836.24 377.902 832.397C391.244 829.494 404.642 826.842 418.087 824.437C421.114 829.823 423.168 835.514 424.351 841.605C418.694 842.009 413.038 842.392 407.383 842.757V842.757ZM321.049 846.33C337.595 841.806 354.248 837.673 370.985 833.919C372.442 837.377 373.634 840.92 374.595 844.549C356.756 845.385 338.905 845.997 321.049 846.33V846.33ZM340.287 821.192C341.603 823.149 342.918 825.107 344.234 827.065C333.358 829.758 322.519 832.592 311.727 835.607C320.831 830.061 330.415 825.366 340.287 821.192ZM305.186 811.645C301.167 815.847 297.336 820.246 293.74 824.826C290.143 820.246 286.312 815.847 282.293 811.645C279.085 808.291 275.755 805.094 272.351 801.99H293.74H315.127C311.725 805.094 308.396 808.291 305.186 811.645V811.645ZM243.245 827.065C244.561 825.107 245.876 823.149 247.192 821.192C257.064 825.366 266.648 830.061 275.754 835.607C264.96 832.592 254.121 829.758 243.245 827.065ZM212.885 844.549C213.845 840.92 215.039 837.377 216.494 833.919C233.233 837.673 249.884 841.806 266.432 846.33C248.576 845.997 230.725 845.385 212.885 844.549V844.549ZM205.735 844.212C197.186 843.78 188.638 843.308 180.098 842.757C174.442 842.392 168.785 842.009 163.129 841.605C164.311 835.514 166.366 829.823 169.393 824.437C182.837 826.842 196.234 829.494 209.578 832.397C208.021 836.24 206.728 840.172 205.735 844.212V844.212ZM156.121 841.08C143.242 840.112 130.37 839.022 117.531 837.678C116.629 837.583 115.714 837.483 114.789 837.375C116.078 829.974 118.746 823.181 122.85 816.965C135.867 819.556 149.198 820.946 160.969 822.95C161.355 823.017 161.739 823.088 162.125 823.155C159.223 828.785 157.199 834.788 156.121 841.08V841.08ZM77.4323 818.549C78.2094 812.443 80.309 806.797 83.5662 801.631C92.7364 808.414 103.881 812.536 115.584 815.369C111.666 821.804 109.057 828.887 107.871 836.403C95.6606 834.341 83.1354 830.017 77.4323 818.549V818.549ZM73.9857 804.875C73.7893 801.11 74.0928 797.289 74.7294 793.483C75.8293 794.758 76.9907 795.953 78.1897 797.101C76.5302 799.589 75.1267 802.182 73.9857 804.875V804.875ZM77.1674 682.021C78.2053 682.959 79.2284 683.914 80.2738 684.844C92.221 695.487 104.632 705.624 117.439 715.232C110.029 722.154 104.505 730.623 101.327 740.291C98.3698 737.196 95.5674 733.93 92.9635 730.452C92.3187 729.59 91.5643 728.959 90.754 728.516C90.7719 724.47 90.4818 720.358 89.7725 716.139C87.6925 703.767 83.0957 692.571 77.1674 682.021V682.021ZM29.6683 613.676C26.8335 608.553 24.3892 603.301 22.3014 597.951C20.2631 589.089 20.6482 579.752 24.2521 570.993C29.1883 558.991 39.6883 548.923 52.293 545.717C63.784 545.786 76.1697 549.895 78.9323 562.417C80.4003 569.07 77.3302 575.692 70.6456 577.875C68.0337 578.729 64.8672 578.878 62.428 577.413C60.4501 576.226 57.6496 571.916 60.5637 570.09C64.381 567.701 60.8591 561.645 57.0262 564.046C49.2261 568.931 52.2539 579.978 59.5215 583.772C67.6625 588.023 78.36 584.066 83.2274 576.68C88.7457 568.305 86.3471 557.381 80.353 549.93C87.448 554.047 93.1114 560.42 95.4152 568.549C99.3273 582.354 93.5442 599.825 79.6884 605.723C66.9458 611.147 50.7735 606.1 44.0061 594C39.9683 586.781 28.8733 593.259 32.9107 600.478C42.4815 617.592 65.1067 624.984 83.1878 618.13C80.2907 628.842 80.2982 640.032 86.0794 650.284C91.1738 659.317 100.692 665.159 110.549 665.155C110.868 665.252 111.207 665.324 111.592 665.33C123.424 665.518 144.332 671.382 142.397 686.622C142.285 686.971 142.213 687.338 142.219 687.725C142.104 688.321 141.964 688.924 141.779 689.545C139.755 696.356 131.895 701.108 125.731 695.781C119.6 690.485 126.36 680.877 132.983 685.213C136.77 687.694 140.278 681.629 136.521 679.168C128.047 673.619 115.693 680.698 115.939 690.827C116.199 701.59 129.194 707.85 138.387 703.678C141.784 702.137 144.373 699.703 146.17 696.788C151.48 707.273 158.268 717.192 169.437 722.018C179.644 726.426 193.03 724.645 199.717 715.052C205.563 706.666 203.581 692.819 193.578 688.457C184.171 684.357 173.051 691.177 172.387 701.253C172.09 705.758 179.101 705.725 179.396 701.253C179.669 697.116 183.814 694.209 187.813 694.263C191.755 694.317 194.505 697.28 195.567 700.862C197.999 709.067 191.459 715.744 183.757 717.097C165.74 720.266 155.464 700.613 149.169 686.891C149.384 682.916 148.577 678.846 146.723 675.283C142.298 666.783 134.302 662.233 125.51 660.047C135.467 652.1 135.541 636.675 126.047 627.822C115.557 618.039 97.7633 623.1 93.6924 636.708C92.3958 641.04 99.1626 642.875 100.451 638.569C103.867 627.15 119.158 627.232 124.367 637.054C129.772 647.247 122.29 657.426 111.39 658.102C99.6293 658.831 91.37 649.082 88.9771 638.388C87.0618 629.828 88.8228 621.273 92.0696 613.28C107.66 601.772 113.546 579.455 106.549 561.483C99.0653 542.259 78.0242 530.447 57.7033 531.938C59.2998 528.882 60.3856 525.527 60.7594 521.855C61.7774 511.854 56.0003 501.425 45.9403 498.652C36.7967 496.129 26.103 502.188 24.7788 511.871C23.4156 521.837 32.9806 529.796 42.4782 527.66C46.8838 526.67 45.0079 519.922 40.615 520.91C31.3464 522.994 29.2664 510.695 36.2813 506.48C41.7797 503.176 48.4287 506.141 51.6251 511.208C56.7476 519.33 53.5127 527.466 47.735 533.749C32.9007 538.046 20.5853 549.111 13.8194 563.037C12.106 547.379 12.9113 531.32 15.9018 515.349C21.3324 486.347 33.024 459.227 46.5506 433.129C48.1723 441.617 51.5655 449.71 57.1314 456.685C58.1005 457.898 59.1392 459.036 60.2168 460.124C61.9959 468.46 61.1139 476.693 53.0493 481.338C47.4338 484.57 40.0354 483.383 38.0946 476.59C37.3625 474.028 37.4991 470.965 38.8411 468.622C39.5581 467.369 40.5779 466.247 41.8745 465.56C43.6015 464.311 45.1706 464.347 46.5817 465.67C48.6286 466.117 48.9753 467.295 47.6218 469.204C43.9458 471.767 47.4526 477.833 51.1593 475.248C55.2506 472.396 56.6992 467.257 54.1819 462.73C51.3659 457.662 44.8636 456.745 39.8705 458.822C29.7335 463.039 27.8499 477.236 34.9067 485.076C43.2909 494.391 58.1702 489.703 64.0694 480.052C66.7604 475.649 67.8535 471.009 67.8885 466.316C78.7978 473.285 92.3364 475.358 103.995 471.843C108.007 473.858 110.748 477.774 109.753 483.083C108.334 490.65 98.2494 492.8 94.5479 485.758C92.448 481.762 86.4007 485.305 88.4957 489.29C94.7203 501.133 112.499 498.636 116.205 486.163C118.333 478.998 115.945 472.814 111.389 468.698C118.141 464.864 123.727 458.701 126.981 450.017C131.853 437.014 128.766 421.542 117.088 413.238C104.189 404.069 84.0517 410.57 84.0142 427.879C83.9967 436.151 96.8467 436.136 96.8642 427.879C96.8823 419.536 107.056 421.083 111.326 425.056C115.25 428.707 116.778 434.028 116.365 439.266C115.524 449.948 107.552 459.095 96.9221 460.841C84.6509 462.856 71.7967 456.114 65.1221 445.945C58.0763 435.211 56.8851 421.862 59.3126 409.5C59.3136 409.5 59.3143 409.498 59.3152 409.496C73.7189 383.649 88.4355 357.973 103.38 332.427C103.694 341.125 107.034 349.423 112.663 355.922C108.225 356.85 103.965 358.726 100.131 361.827C90.5755 369.55 87.2844 384.105 95.2198 394.227C102.119 403.025 117.165 404.28 124.235 394.913C130.671 386.386 126.634 373.96 117.042 370.099C112.853 368.413 111.048 375.187 115.179 376.851C122.842 379.936 121.421 391.212 114.257 393.793C106.626 396.542 99.4024 391.1 97.9882 383.632C96.3485 374.973 102.209 367.38 109.868 364.084C113.004 362.735 116.259 362.136 119.525 362.1C121.343 363.379 123.277 364.525 125.344 365.484C142.036 373.223 160.846 369.649 174.907 358.257C184.122 350.791 190.151 340.662 193.497 329.598C200.566 337.264 210.728 341.771 221.601 339.536C238.222 336.117 251.425 316.906 244.553 300.47C241.406 292.948 228.979 296.27 232.161 303.883C238.608 319.301 218.784 333.72 205.686 323.643C194.291 314.876 194.135 299.575 201.992 289.079C201.962 289.3 201.924 289.514 201.9 289.739C201.263 295.804 203.426 302.681 208.622 306.284C213.953 309.98 220.103 308.422 222.564 302.47C224.29 298.304 217.504 296.504 215.807 300.609C214.64 303.427 210.916 298.955 210.245 297.779C209.172 295.899 208.721 293.581 208.777 291.435C208.868 287.838 210.661 284.382 213.165 281.86C214.924 280.088 216.917 278.756 219.056 277.768C231.418 274.303 245.157 277.889 256.097 285.26C258.354 286.78 260.47 288.45 262.471 290.231C264.193 292.11 265.991 293.919 267.867 295.643C274.498 303.077 279.584 311.908 283.705 321.093V344.35C282.733 342.355 281.58 340.44 280.156 338.639C274.341 331.286 263.324 326.911 254.985 332.821C248.339 337.532 245.494 349.235 253.882 353.927C261.05 357.935 269.001 348.768 262.818 342.958C259.533 339.869 254.57 344.814 257.862 347.908C251.469 341.899 260.694 335.981 266.486 337.401C271.66 338.67 275.219 342.895 277.462 347.48C280.793 354.29 281.727 361.953 283.705 369.261L283.705 476.034C282.096 473.229 280.387 470.464 278.545 467.756C266.306 449.768 249.247 435.196 229.287 427.89C221.234 417.467 217.087 403.76 221.251 390.92C225.005 379.344 235.569 370.657 248.112 371.777C259.451 372.79 268.804 383.822 265.346 395.351C262.477 404.918 250.527 408.383 242.608 402.858C235.808 398.112 229.393 409.245 236.123 413.942C241.505 417.696 247.92 418.959 254.115 418.202C252.269 421.952 251.324 426.09 251.825 430.525C252.643 437.748 257.865 444.261 265.208 445.564C272.063 446.779 279.471 442.35 280.896 435.367C282.39 428.046 276.598 422.006 269.659 421.36C265.163 420.941 265.206 427.946 269.659 428.361C277.034 429.048 273.715 438.072 268.316 438.678C264.323 439.129 261.107 436.259 259.617 432.796C256.595 425.776 260.845 418.981 265.832 414.121C270.55 411.236 274.442 407.002 276.639 401.726C283.562 385.085 273.376 365.919 256.679 360.491C238.345 354.532 218.952 364.948 211.089 381.851C209.515 385.236 208.444 388.679 207.758 392.139C202.005 386.864 196.672 380.868 195.046 373.16C193.987 368.145 194.537 362.285 198.129 358.343C200.168 356.106 203.551 354.212 206.664 355.226C210.763 356.564 211.726 362.975 206.366 362.573C201.859 362.236 201.895 369.239 206.366 369.574C215.035 370.224 220.157 360.424 215.389 353.4C210.501 346.198 200.369 346.87 194.388 352.218C187.407 358.462 186.233 368.846 188.936 377.413C189.181 378.187 189.46 378.939 189.758 379.679C175.228 371.792 156.073 369.032 141.809 378.592C128.382 387.592 122.82 406.446 133.964 419.597C143.573 430.938 163.367 429.638 170.005 415.734C173.55 408.309 162.467 401.805 158.909 409.256C154.307 418.896 142.323 413.987 140.898 404.862C139.14 393.601 150.988 386.027 160.841 385.419C183.43 384.021 203.4 402.488 209.185 423.239C205.45 422.852 201.652 422.703 197.79 422.847C166.732 424.006 138.388 443.636 133.024 475.316C132.617 475.933 132.299 476.672 132.116 477.556C126.448 504.861 93.4528 516.481 72.5628 497.177C66.4966 491.571 57.393 500.631 63.4764 506.253C74.7274 516.648 90.6135 521.792 105.703 519.127C104.45 522.036 103.545 525.136 103.132 528.48C101.618 540.727 108.952 554.311 121.923 556.369C132.736 558.087 144.79 548.959 143.294 537.406C141.933 526.889 128.732 520.368 119.851 526.515C116.164 529.066 119.672 535.133 123.389 532.56C130.658 527.529 139.354 536.412 135.059 543.815C130.212 552.173 119.276 550.47 113.928 543.809C106.456 534.504 109.318 524.593 115.58 516.187C122.906 513.064 129.31 508.166 134.302 502.101C136.518 510.319 140.436 517.941 145.992 524.053C146.11 524.366 146.245 524.68 146.419 524.996C153.982 538.781 158.846 556.086 152.869 571.397C148.213 583.32 135.522 594.011 122.073 592.206C113.973 591.119 110.499 603.487 118.657 604.584C137.393 607.098 155.225 596.405 163.311 579.432C169.862 565.683 169.359 550.44 165.043 536.244C166.943 536.834 168.917 537.314 170.975 537.659C195.035 541.688 223.831 528.238 228.124 502.395C229.469 494.301 217.085 490.853 215.734 498.982C212.006 521.425 182.948 532.083 163.689 521.898C161.63 520.809 159.759 519.542 158.058 518.129C166.516 520.742 175.841 519.6 182.942 513.084C192.126 504.656 191.903 488.285 180.643 481.563C169.959 475.185 155.551 483.482 155.662 495.837C155.703 500.346 162.711 500.342 162.671 495.837C162.569 484.431 177.825 483.682 181.678 493.322C185.279 502.33 177.971 510.801 169.17 512.329C160.648 513.808 152.562 509.009 147.429 502.425C142.868 489.372 144.638 473.523 151.166 461.747C163 440.396 188.946 432.963 212.004 436.521C209.232 437.707 206.586 439.231 204.14 441.105C191.603 450.704 186.46 467.419 190.481 482.523C192.607 490.512 204.999 487.103 202.871 479.112C200.194 469.053 203.484 457.621 211.937 451.186C218.933 445.86 228.04 445.02 236.067 447.719C226.095 450.213 218.728 459.344 218.262 469.991C217.718 482.465 229.264 495.453 242.394 490.816C254.257 486.623 255.246 469.829 242.847 465.739C238.547 464.321 236.719 471.084 240.984 472.491C246.659 474.363 245.626 481.377 241.097 483.779C236.43 486.254 231.209 483.735 228.243 479.903C223.47 473.739 224.748 464.838 229.762 459.196C235.729 452.479 245.144 453.149 252.544 456.92C263.317 466.95 271.841 479.616 277.954 492.922C280.177 497.759 282.077 502.7 283.705 507.721V509.135C282.703 508.123 281.621 507.157 280.443 506.249C270.067 498.258 254.342 498.448 245.653 508.966C237.865 518.394 240.887 534.203 252.405 539.211C257.728 541.526 264.809 540.863 268.769 536.263C272.53 531.893 272.113 525.125 267.705 521.429C264.271 518.548 259.291 523.478 262.749 526.379C266.347 529.398 263.067 533.22 259.244 533.533C257.374 533.687 255.449 533.11 253.873 532.139C250.705 530.183 248.829 526.489 248.354 522.901C247.257 514.612 254.359 508.638 262.031 507.65C270.948 506.5 278.919 512.375 283.07 519.897C283.297 520.309 283.501 520.727 283.705 521.144V555.919C269.961 569.954 247.456 579.382 227.804 573.449C218.616 570.676 209.006 562.067 211.259 551.486C212.256 546.811 215.898 542.006 220.871 541.206C226.555 540.292 232.033 544.829 232.074 550.501C232.107 555.012 239.117 555.009 239.083 550.501C238.994 537.992 224.69 530.116 213.914 536.468C202.66 543.1 201.665 557.78 208.395 567.864C203.119 567.113 197.813 567.47 192.734 570.003C185.132 573.794 180.378 581.93 182.965 590.371C185.413 598.36 194.673 605.778 203.342 603.465C210.545 601.543 213.528 592.418 208.181 587.059C204.991 583.861 200.035 588.814 203.225 592.009C204.552 594.117 203.968 595.686 201.477 596.715C199.474 597.006 197.608 596.65 195.875 595.647C193.844 594.57 192.037 592.815 190.839 590.848C187.74 585.758 189.531 580.443 194.163 577.233C202.606 571.384 213.59 575.893 222.093 579.174C222.678 579.399 223.211 579.451 223.693 579.39C231.554 582.207 240.512 582.503 248.704 581.336C255.632 580.348 262.298 578.286 268.523 575.31L182.623 661.109C173.859 657.769 166.408 651.847 163.201 642.764C160.473 635.035 161.835 624.613 169.022 619.687C174.659 615.822 183.982 616.302 188.079 622.19C192.773 628.933 203.907 622.509 199.176 615.712C187.962 599.6 163.078 601.431 153.403 618.267C143.775 635.022 151.139 655.154 165.726 666.158C179.805 676.779 198.33 679.202 215.371 675.973V760.57C215.371 760.911 215.399 761.232 215.442 761.545C192.586 747.978 168.983 735.43 147.162 720.704C103.051 690.937 63.5226 654.687 29.6683 613.676V613.676ZM151.78 338.637C159.601 333.737 164.123 324.216 161.434 315.084C158.759 305.997 150.046 299.837 140.942 298.393C134.262 297.332 127.548 298.531 121.684 301.412C129.944 287.512 138.269 273.649 146.634 259.815C149.383 270.48 154.892 280.174 164.263 286.913C170.589 291.463 178.023 293.638 185.35 293.406C183.752 298.373 183.177 303.688 183.876 309.118C183.441 324.817 177.673 340.984 164.314 350.263C152.467 358.49 135.747 359.735 124.437 349.741C114.323 340.807 112.528 322.897 124.39 314.552C129.657 310.849 136.904 309.496 142.876 312.244C149.254 315.179 152.107 323.286 145.294 327.555C138.297 331.937 144.754 343.038 151.78 338.637V338.637ZM177.027 209.961C177.825 216.42 179.798 222.658 183.671 228.116C187.055 232.888 191.56 236.738 196.741 238.955C197.673 241.138 198.517 243.343 199.223 245.586C201.636 253.244 198.619 261.571 189.333 260.55C185.688 260.15 182.175 257.68 181.047 254.088C179.1 247.886 188.098 243.146 189.205 250.253C189.898 254.699 196.65 252.799 195.964 248.392C194.103 236.444 177.86 237.18 174.37 247.767C170.659 259.02 182.011 268.632 192.62 267.441C205.485 265.997 209.453 253.893 205.692 242.818C205.477 242.191 205.245 241.57 205.015 240.948C206.575 241.054 208.162 241.03 209.779 240.827C219.794 239.573 228.964 232.205 229.557 221.64C229.685 219.355 229.41 217.06 228.789 214.872C230.725 208.09 233.952 201.257 241.246 199.628C253.12 196.977 254.335 215.897 241.328 214.367C236.849 213.841 236.901 220.847 241.328 221.369C256.574 223.161 264.493 202.747 251.14 194.511C245.053 190.757 237.371 192.393 231.951 196.53C228.418 199.225 226.037 202.781 224.303 206.696C221.778 203.89 218.465 201.828 214.562 201.093C206.467 199.565 203.029 211.939 211.147 213.469C215.339 214.26 218.005 218.787 216.336 222.937C214.288 228.023 206.91 229.216 202.342 227.51C200.283 226.741 198.543 225.679 197.062 224.4C195.2 221.199 193.222 218.058 191.178 214.963C188.864 207.653 189.289 198.83 190.129 191.991C190.777 190.048 191.426 188.105 192.074 186.162C192.176 185.855 192.24 185.548 192.286 185.243C194.146 182.236 196.022 179.239 197.885 176.236C201.192 182.738 209.31 186.427 216.893 184.506C221.586 183.317 225.19 180.764 227.889 177.432C228.556 178.434 229.272 179.409 230.09 180.319C235.545 186.391 244.54 189.853 252.63 187.865C261.184 185.764 267.481 177.847 266.879 168.98C266.32 160.769 253.468 160.736 254.029 168.98C254.486 175.709 247.193 176.794 242.399 173.993C238.919 171.959 236.872 168.235 236.234 164.329C234.818 155.648 239.508 147.085 247.849 144.137C257.761 140.633 269.097 144.571 275.871 152.246C279.94 156.855 282.414 162.409 283.705 168.276V292.042C281.142 290.216 278.694 288.241 276.391 286.116C275.018 284.616 273.57 283.179 272.081 281.782C266.82 276.046 262.471 269.483 259.304 262.297C256.174 255.199 253.141 246.334 255.36 238.594C257.228 232.078 263.52 227.231 269.709 231.82C276.359 236.753 282.759 225.608 276.193 220.738C267.874 214.567 255.905 216.625 249.088 224.071C242.008 231.805 240.864 242.407 242.707 252.322C234.993 245.063 224.752 241.199 214.612 248.156C210.912 250.692 214.422 256.757 218.149 254.2C229.013 246.749 239.068 256.558 244.559 265.772C231.96 262.21 218.43 262.857 206.387 269.127C202.059 271.381 198.168 274.301 194.872 277.712C186.928 282.938 176.337 280.822 169.329 274.623C160.674 266.968 157.7 255.443 157.32 244.294C157.299 243.693 157.205 243.14 157.061 242.628C163.694 231.725 170.345 220.831 177.027 209.961V209.961ZM203.486 167.872C203.517 167.631 203.517 167.409 203.506 167.195C212.056 153.439 220.645 139.708 229.249 125.985C230.421 128.701 232.711 130.9 236.134 131.855C240.492 133.072 242.334 126.317 237.997 125.105C231.232 123.216 237.432 115.681 241.276 114.559C245.071 113.45 249.043 114.838 251.331 118.095C254.277 122.291 253.688 126.875 251.169 130.347C243.696 131.187 236.585 134.263 231.314 139.937C223.997 147.813 221.4 159.887 224.48 170.158C223.177 172.518 221.376 174.58 218.896 176.1C212.08 180.276 202.329 176.822 203.486 167.872V167.872ZM283.705 39.721V80.7782C283.338 80.5307 282.986 80.2757 282.601 80.0449C274.731 75.3459 263.392 76.349 257.774 84.1093C252.688 91.1346 254.769 102.643 263.203 106.112C271.388 109.475 280.928 102.632 280.451 93.9093C280.205 89.4206 273.195 89.4076 273.441 93.9093C273.851 101.398 263.541 101.584 262.117 94.5142C260.951 88.719 266.175 84.435 271.569 84.1409C277.06 83.8413 280.972 86.3034 283.705 90.0365V141.882C281.595 139.753 279.256 137.814 276.639 136.156C271.496 132.899 265.426 130.882 259.244 130.29C259.781 128.853 260.139 127.331 260.273 125.729C260.886 118.432 256.526 110.781 249.548 108.168C246.802 107.141 243.758 106.959 240.849 107.508C255.086 84.8816 269.374 62.2892 283.705 39.721V39.721ZM209.329 664.05C205.612 664.552 201.602 664.671 197.54 664.36C226.263 635.671 254.983 606.984 283.705 578.297V599.555C283.705 600.259 283.804 600.899 283.974 601.481C266.652 630.459 244.564 659.289 209.329 664.05ZM383.689 805.604C386.527 808.79 388.506 812.637 389.549 816.867C376.807 819.455 364.106 822.245 351.464 825.286C349.94 823.019 348.418 820.752 346.896 818.486C358.91 813.725 371.285 809.62 383.689 805.604ZM349.875 791.109C350.132 791.353 350.434 791.578 350.827 791.756C354.714 793.524 357.678 796.615 359.01 800.496C344.787 805.373 330.782 810.791 317.496 817.63C327.37 807.882 338.411 799.111 349.875 791.109ZM329.653 759.403C329.908 758.715 330.057 757.94 330.057 757.069V704.537C339.518 707.184 349.32 708.728 359.26 709.086V759.403H329.653ZM317.613 759.403H269.866C270.123 758.715 270.272 757.94 270.272 757.069V700.171C278.502 696.872 286.372 692.694 293.74 687.712C301.107 692.694 308.977 696.872 317.207 700.171V757.069C317.207 757.94 317.358 758.715 317.613 759.403V759.403ZM260.343 789.155C259.337 789.155 258.458 789.346 257.698 789.68C249.703 783.479 241.367 777.717 232.819 772.238H293.74H354.66C346.112 777.717 337.778 783.479 329.781 789.68C329.021 789.346 328.142 789.155 327.137 789.155H293.74H260.343ZM228.471 800.496C229.803 796.615 232.765 793.524 236.652 791.756C237.045 791.578 237.347 791.353 237.606 791.109C249.068 799.111 260.111 807.882 269.985 817.63C256.697 810.791 242.694 805.373 228.471 800.496V800.496ZM203.791 805.604C216.196 809.62 228.569 813.725 240.585 818.486C239.061 820.752 237.539 823.019 236.016 825.286C223.373 822.245 210.674 819.455 197.93 816.867C198.973 812.637 200.954 808.79 203.791 805.604V805.604ZM257.826 759.403H228.219V709.086C238.161 708.728 247.961 707.184 257.422 704.537V757.069C257.422 757.94 257.571 758.715 257.826 759.403ZM190.058 788.038C192.968 780.566 198.366 774.622 205.485 770.83C207.875 772.233 210.266 773.638 212.647 775.061C218.834 778.761 225.05 782.643 231.187 786.728C226.749 789.345 223.518 793.485 221.886 798.279C211.285 794.766 200.613 791.466 190.058 788.038ZM161.966 791.472C173.339 795.748 185.012 799.543 196.715 803.319C194.105 806.806 192.178 810.776 191.122 815.179C191.096 815.287 191.096 815.385 191.079 815.49C184.405 814.179 177.723 812.908 171.023 811.727C164.683 810.606 158.288 809.663 151.89 808.712C154.346 802.474 157.698 796.709 161.966 791.472V791.472ZM115.142 768.291C127.565 776.669 141.085 783.213 155.167 788.838C150.797 794.604 147.328 800.862 144.798 807.642C135.307 806.187 125.847 804.569 116.581 802.185C111.015 800.754 105.47 798.953 100.309 796.521C103.372 786.136 108.321 776.641 115.142 768.291V768.291ZM109.438 764.234C102.518 772.826 97.319 782.511 94.0072 793.065C88.3239 789.462 83.4054 784.8 79.8974 778.586C79.6275 778.108 79.3247 777.695 78.9992 777.334C79.8656 774.76 80.7683 772.244 81.6453 769.817C84.5976 761.642 87.2203 753.636 88.8914 745.52C95.2201 752.635 102.116 758.791 109.438 764.234ZM163.412 746.261C175.019 753.277 186.814 759.978 198.55 766.786C191.631 771.377 186.356 778.054 183.395 785.855C170.078 781.4 156.539 776.342 143.685 770.054C146.999 759.807 153.883 751.509 163.412 746.261ZM137.369 766.83C126.413 760.992 116.097 754.133 107.009 745.844C109.691 735.568 115.161 726.413 123.102 719.414C129.704 724.242 136.397 728.944 143.198 733.48C147.641 736.444 152.136 739.317 156.668 742.131C147.644 748.014 140.905 756.654 137.369 766.83ZM397.421 788.038C386.866 791.466 376.194 794.766 365.593 798.279C363.961 793.485 360.732 789.345 356.292 786.728C362.429 782.643 368.646 778.761 374.834 775.061C377.213 773.638 379.604 772.233 381.996 770.83C389.115 774.622 394.511 780.566 397.421 788.038V788.038ZM443.795 770.054C430.941 776.342 417.401 781.4 404.085 785.855C401.123 778.054 395.85 771.377 388.929 766.786C400.666 759.978 412.46 753.277 424.068 746.261C433.598 751.509 440.48 759.807 443.795 770.054V770.054ZM450.111 766.83C446.574 756.654 439.835 748.014 430.812 742.131C435.343 739.317 439.839 736.444 444.281 733.48C451.083 728.944 457.776 724.242 464.379 719.414C472.319 726.413 477.788 735.568 480.471 745.844C471.382 754.133 461.066 760.992 450.111 766.83V766.83ZM478.041 764.234C485.363 758.791 492.259 752.635 498.588 745.52C500.259 753.636 502.882 761.642 505.834 769.817C506.711 772.244 507.615 774.76 508.481 777.334C508.155 777.695 507.851 778.108 507.583 778.586C504.075 784.8 499.156 789.462 493.472 793.065C490.161 782.511 484.963 772.826 478.041 764.234V764.234ZM435.589 808.712C429.191 809.663 422.797 810.606 416.457 811.727C409.757 812.908 403.075 814.179 396.4 815.49C396.383 815.385 396.383 815.287 396.357 815.179C395.301 810.776 393.374 806.806 390.766 803.319C402.468 799.543 414.141 795.748 425.513 791.472C429.782 796.709 433.134 802.474 435.589 808.712ZM432.312 788.838C446.396 783.213 459.914 776.669 472.338 768.291C479.159 776.641 484.107 786.136 487.17 796.521C482.01 798.953 476.465 800.754 470.898 802.185C461.634 804.569 452.173 806.187 442.682 807.642C440.152 800.862 436.683 794.604 432.312 788.838V788.838ZM293.74 610.075C309.911 636.576 329.669 661.757 359.26 672.435V696.236C335.276 695.348 312.301 686.676 293.74 671.786C275.178 686.676 252.205 695.348 228.219 696.236V672.435C257.81 661.757 277.57 636.576 293.74 610.075ZM303.775 599.555V578.297C332.496 606.984 361.216 635.671 389.938 664.36C385.879 664.671 381.869 664.552 378.15 664.05C342.916 659.289 320.829 630.459 303.505 601.481C303.675 600.899 303.775 600.259 303.775 599.555ZM303.775 168.276C305.065 162.409 307.539 156.855 311.61 152.246C318.384 144.571 329.718 140.633 339.632 144.137C347.971 147.085 352.662 155.648 351.245 164.329C350.607 168.235 348.562 171.959 345.081 173.993C340.286 176.794 332.993 175.709 333.451 168.98C334.01 160.736 321.158 160.769 320.601 168.98C319.998 177.847 326.295 185.764 334.849 187.865C342.94 189.853 351.936 186.391 357.389 180.319C358.207 179.409 358.923 178.434 359.591 177.432C362.291 180.764 365.893 183.317 370.586 184.506C378.171 186.427 386.288 182.738 389.594 176.236C391.457 179.239 393.333 182.236 395.192 185.243C395.239 185.548 395.304 185.855 395.407 186.162C396.055 188.105 396.704 190.048 397.352 191.991C398.192 198.83 398.615 207.653 396.301 214.963C394.257 218.058 392.279 221.199 390.419 224.4C388.938 225.679 387.196 226.741 385.139 227.51C380.571 229.216 373.191 228.023 371.145 222.937C369.474 218.787 372.14 214.26 376.334 213.469C384.45 211.939 381.012 199.565 372.917 201.093C369.015 201.828 365.701 203.89 363.176 206.696C361.442 202.781 359.06 199.225 355.528 196.53C350.108 192.393 342.426 190.757 336.341 194.511C322.986 202.747 330.905 223.161 346.153 221.369C350.578 220.847 350.63 213.841 346.153 214.367C333.144 215.897 334.359 196.977 346.235 199.628C353.527 201.257 356.756 208.09 358.69 214.872C358.069 217.06 357.795 219.355 357.924 221.64C358.515 232.205 367.687 239.573 377.701 240.827C379.318 241.03 380.906 241.054 382.463 240.948C382.234 241.57 382.001 242.191 381.789 242.818C378.025 253.893 381.996 265.997 394.859 267.441C405.47 268.632 416.82 259.02 413.11 247.767C409.619 237.18 393.376 236.444 391.516 248.392C390.829 252.799 397.583 254.699 398.274 250.253C399.381 243.146 408.38 247.886 406.433 254.088C405.306 257.68 401.792 260.15 398.147 260.55C388.86 261.571 385.843 253.244 388.258 245.586C388.964 243.343 389.806 241.138 390.74 238.955C395.919 236.738 400.426 232.888 403.81 228.116C407.681 222.658 409.654 216.42 410.452 209.961C417.135 220.831 423.784 231.725 430.419 242.628C430.276 243.14 430.181 243.693 430.16 244.294C429.78 255.443 426.804 266.968 418.15 274.623C411.143 280.822 400.553 282.938 392.606 277.712C389.312 274.301 385.42 271.381 381.092 269.127C369.049 262.857 355.519 262.21 342.92 265.772C348.413 256.558 358.468 246.749 369.33 254.2C373.058 256.757 376.567 250.692 372.868 248.156C362.727 241.199 352.485 245.063 344.772 252.322C346.615 242.407 345.473 231.805 338.391 224.071C331.573 216.625 319.606 214.567 311.286 220.738C304.72 225.608 311.122 236.753 317.771 231.82C323.959 227.231 330.252 232.078 332.121 238.594C334.34 246.334 331.307 255.199 328.177 262.297C325.008 269.483 320.661 276.046 315.399 281.782C313.909 283.179 312.463 284.616 311.088 286.116C308.785 288.241 306.337 290.216 303.775 292.042V168.276ZM303.775 90.0365C306.507 86.3034 310.421 83.8413 315.91 84.1409C321.306 84.435 326.53 88.719 325.362 94.5142C323.938 101.584 313.628 101.398 314.037 93.9093C314.285 89.4076 307.274 89.4206 307.03 93.9093C306.551 102.632 316.093 109.475 324.275 106.112C332.71 102.643 334.791 91.1346 329.707 84.1093C324.089 76.349 312.748 75.3459 304.878 80.0449C304.493 80.2757 304.14 80.5307 303.775 80.7782V39.721C318.105 62.2892 332.395 84.8816 346.63 107.508C343.721 106.959 340.677 107.141 337.932 108.168C330.955 110.781 326.593 118.432 327.206 125.729C327.34 127.331 327.698 128.853 328.235 130.29C322.053 130.882 315.984 132.899 310.84 136.156C308.223 137.814 305.886 139.753 303.775 141.882V90.0365ZM349.484 125.105C345.145 126.317 346.987 133.072 351.347 131.855C354.768 130.9 357.058 128.701 358.229 125.985C366.834 139.708 375.423 153.439 383.974 167.195C383.963 167.409 383.961 167.631 383.993 167.872C385.15 176.822 375.4 180.276 368.583 176.1C366.103 174.58 364.303 172.518 362.999 170.158C366.081 159.887 363.482 147.813 356.165 139.937C350.894 134.263 343.783 131.187 336.31 130.347C333.792 126.875 333.202 122.291 336.149 118.095C338.435 114.838 342.408 113.45 346.205 114.559C350.047 115.681 356.247 123.216 349.484 125.105V125.105ZM440.845 259.815C449.211 273.649 457.535 287.512 465.796 301.412C459.931 298.531 453.218 297.332 446.539 298.393C437.434 299.837 428.722 305.997 426.046 315.084C423.358 324.216 427.88 333.737 435.699 338.637C442.725 343.038 449.183 331.937 442.185 327.555C435.373 323.286 438.226 315.179 444.603 312.244C450.576 309.496 457.822 310.849 463.089 314.552C474.952 322.897 473.158 340.807 463.043 349.741C451.733 359.735 435.014 358.49 423.166 350.263C409.807 340.984 404.039 324.817 403.605 309.118C404.303 303.688 403.728 298.373 402.129 293.406C409.457 293.638 416.891 291.463 423.218 286.913C432.588 280.174 438.097 270.48 440.845 259.815V259.815ZM559.459 441.509C553.383 428.828 546.866 416.339 540.097 403.971C540.069 403.846 540.047 403.718 540.017 403.593C539.672 402.145 538.985 401.073 538.103 400.329C525.49 377.485 512.064 355.04 498.97 332.574C477.547 295.825 455.689 259.335 433.529 223.029C389.001 150.074 343.263 77.8657 297.396 5.74862C296.177 3.8318 294.959 1.91684 293.74 2.07102e-05C292.522 1.91684 291.302 3.8318 290.083 5.74862C244.216 77.8657 198.48 150.074 153.952 223.029C131.791 259.335 109.932 295.825 88.5108 332.574C75.4147 355.04 61.9892 377.485 49.3768 400.329C48.4959 401.073 47.8077 402.145 47.463 403.593C47.433 403.718 47.411 403.846 47.382 403.971C40.615 416.339 34.0968 428.828 28.0214 441.509C11.5336 475.924 -0.858598 513.099 0.0469216 551.683C0.471298 569.768 3.80342 587.773 10.7495 604.507C13.4315 613.63 18.1342 622.213 24.3225 629.467C29.7607 637.694 35.7697 645.572 41.8004 653.409C53.3353 668.399 65.2889 683.748 72.2706 701.506C75.7914 710.461 78.1461 719.902 78.1697 729.56C78.1934 739.269 75.5524 748.54 72.3968 757.644C66.624 774.298 59.5273 790.997 61.6496 809.03C63.6018 825.615 73.5113 838.181 88.9311 844.441C105.399 851.128 124.522 851.273 141.994 852.752C163.915 854.608 185.868 856.083 207.84 857.174C236.454 858.596 265.094 859.338 293.74 859.459C322.384 859.338 351.027 858.596 379.639 857.174C401.611 856.083 423.565 854.608 445.484 852.752C462.957 851.273 482.08 851.128 498.549 844.441C513.968 838.181 523.878 825.615 525.831 809.03C527.953 790.997 520.856 774.298 515.082 757.644C511.928 748.54 509.286 739.269 509.31 729.56C509.334 719.902 511.688 710.461 515.209 701.506C522.19 683.748 534.144 668.399 545.679 653.409C551.71 645.572 557.719 637.694 563.157 629.467C569.345 622.213 574.049 613.63 576.73 604.507C583.676 587.773 587.009 569.768 587.432 551.683C588.338 513.099 575.946 475.924 559.459 441.509" fill="white"/>
</g>
<defs>
<clipPath id="clip0_109_130">
<rect width="587.479" height="859.459" fill="white"/>
</clipPath>
</defs>
</svg>
